HIERARCHY
ROOT Hips
{
	OFFSET 0.000000 35.082581 0.000000
	CHANNELS 6 Xposition Yposition Zposition Xrotation Yrotation Zrotation 
	JOINT Spine
	{
		OFFSET 0.000000 6.876099 0.125700
		CHANNELS 3 Xrotation Yrotation Zrotation
		JOINT Spine1
		{
			OFFSET 0.000000 5.730043 0.104720
			CHANNELS 3 Xrotation Yrotation Zrotation
			JOINT Spine1_split
			{
				OFFSET 0.000000 5.730043 0.104720
				CHANNELS 3 Xrotation Yrotation Zrotation
				JOINT Spine2
				{
					OFFSET 0.000000 5.730043 0.104720
					CHANNELS 3 Xrotation Yrotation Zrotation
					JOINT Neck
					{
						OFFSET 0.000000 10.314075 0.188496
						CHANNELS 3 Xrotation Yrotation Zrotation
						JOINT Head
						{
							OFFSET 0.000000 7.643700 -2.377400
							CHANNELS 3 Xrotation Yrotation Zrotation
							JOINT HeadTop_End
							{
								OFFSET 0.000000 43.788605 -13.619600
								CHANNELS 3 Xrotation Yrotation Zrotation
								End Site
								{
									OFFSET 0.000000 0.000000 0.000000
								}
							}
						}
					}
					JOINT LeftShoulder
					{
						OFFSET 2.196100 4.412489 0.087492
						CHANNELS 3 Xrotation Yrotation Zrotation
						JOINT LeftShoulder_split
						{
							OFFSET 2.196100 4.412489 0.087492
							CHANNELS 3 Xrotation Yrotation Zrotation
							JOINT LeftArm
							{
								OFFSET 8.771219 -2.981674 -0.026999
								CHANNELS 3 Xrotation Yrotation Zrotation
								JOINT LeftForeArm
								{
									OFFSET 8.512804 0.000000 -0.000000
									CHANNELS 3 Xrotation Yrotation Zrotation
									JOINT LeftHand
									{
										OFFSET 18.484802 0.000000 -0.000000
										CHANNELS 3 Xrotation Yrotation Zrotation
										JOINT LeftHandThumb1
										{
											OFFSET 2.499420 -1.158070 2.653252
											CHANNELS 3 Xrotation Yrotation Zrotation
											JOINT LeftHandThumb2
											{
												OFFSET 2.370079 -1.368366 1.368366
												CHANNELS 3 Xrotation Yrotation Zrotation
												JOINT LeftHandThumb3
												{
													OFFSET 2.676727 -1.545410 1.545409
													CHANNELS 3 Xrotation Yrotation Zrotation
													JOINT LeftHandThumb4
													{
														OFFSET 1.692226 -0.977005 0.977007
														CHANNELS 3 Xrotation Yrotation Zrotation
														End Site
														{
															OFFSET 0.000000 0.000000 0.000000
														}
													}
												}
											}
										}
										JOINT LeftHandIndex1
										{
											OFFSET 7.924831 -0.457527 2.345128
											CHANNELS 3 Xrotation Yrotation Zrotation
											JOINT LeftHandIndex2
											{
												OFFSET 3.643303 0.000000 0.000000
												CHANNELS 3 Xrotation Yrotation Zrotation
												JOINT LeftHandIndex3
												{
													OFFSET 3.810799 0.000000 0.000000
													CHANNELS 3 Xrotation Yrotation Zrotation
													JOINT LeftHandIndex4
													{
														OFFSET 2.403702 0.000000 0.000000
														CHANNELS 3 Xrotation Yrotation Zrotation
														End Site
														{
															OFFSET 0.000000 0.000000 0.000000
														}
													}
												}
											}
										}
										JOINT LeftHandMiddle1
										{
											OFFSET 8.563995 0.000000 -0.000000
											CHANNELS 3 Xrotation Yrotation Zrotation
											JOINT LeftHandMiddle2
											{
												OFFSET 3.861618 0.000000 0.000000
												CHANNELS 3 Xrotation Yrotation Zrotation
												JOINT LeftHandMiddle3
												{
													OFFSET 3.701603 0.000000 0.000000
													CHANNELS 3 Xrotation Yrotation Zrotation
													JOINT LeftHandMiddle4
													{
														OFFSET 2.322544 0.000000 0.000000
														CHANNELS 3 Xrotation Yrotation Zrotation
														End Site
														{
															OFFSET 0.000000 0.000000 0.000000
														}
													}
												}
											}
										}
										JOINT LeftHandRing1
										{
											OFFSET 8.426460 -0.424637 -3.286992
											CHANNELS 3 Xrotation Yrotation Zrotation
											JOINT LeftHandRing2
											{
												OFFSET 3.126408 0.000000 0.000000
												CHANNELS 3 Xrotation Yrotation Zrotation
												JOINT LeftHandRing3
												{
													OFFSET 3.085026 0.000000 0.000000
													CHANNELS 3 Xrotation Yrotation Zrotation
													JOINT LeftHandRing4
													{
														OFFSET 1.644005 0.000000 0.000000
														CHANNELS 3 Xrotation Yrotation Zrotation
														End Site
														{
															OFFSET 0.000000 0.000000 0.000000
														}
													}
												}
											}
										}
									}
								}
							}
						}
					}
					JOINT RightShoulder
					{
						OFFSET -2.196100 4.412496 0.070690
						CHANNELS 3 Xrotation Yrotation Zrotation
						JOINT RightShoulder_split
						{
							OFFSET -2.196100 4.412496 0.070690
							CHANNELS 3 Xrotation Yrotation Zrotation
							JOINT RightArm
							{
								OFFSET -8.771282 -2.981682 -0.094208
								CHANNELS 3 Xrotation Yrotation Zrotation
								JOINT RightForeArm
								{
									OFFSET -8.494598 0.000000 0.000000
									CHANNELS 3 Xrotation Yrotation Zrotation
									JOINT RightHand
									{
										OFFSET -18.483803 0.000000 0.000001
										CHANNELS 3 Xrotation Yrotation Zrotation
										JOINT RightHandThumb1
										{
											OFFSET -2.527351 -1.008072 2.575253
											CHANNELS 3 Xrotation Yrotation Zrotation
											JOINT RightHandThumb2
											{
												OFFSET -2.321518 -1.340328 1.340329
												CHANNELS 3 Xrotation Yrotation Zrotation
												JOINT RightHandThumb3
												{
													OFFSET -2.657753 -1.534454 1.534455
													CHANNELS 3 Xrotation Yrotation Zrotation
													JOINT RightHandThumb4
													{
														OFFSET -1.807510 -1.043568 1.043567
														CHANNELS 3 Xrotation Yrotation Zrotation
														End Site
														{
															OFFSET 0.000000 0.000000 0.000000
														}
													}
												}
											}
										}
										JOINT RightHandIndex1
										{
											OFFSET -8.811420 0.015533 2.887987
											CHANNELS 3 Xrotation Yrotation Zrotation
											JOINT RightHandIndex2
											{
												OFFSET -3.537502 0.000000 0.000000
												CHANNELS 3 Xrotation Yrotation Zrotation
												JOINT RightHandIndex3
												{
													OFFSET -3.356201 0.000000 0.000000
													CHANNELS 3 Xrotation Yrotation Zrotation
													JOINT RightHandIndex4
													{
														OFFSET -1.933098 0.000000 0.000000
														CHANNELS 3 Xrotation Yrotation Zrotation
														End Site
														{
															OFFSET 0.000000 0.000000 0.000000
														}
													}
												}
											}
										}
										JOINT RightHandMiddle1
										{
											OFFSET -8.178135 0.000000 0.000000
											CHANNELS 3 Xrotation Yrotation Zrotation
											JOINT RightHandMiddle2
											{
												OFFSET -3.901302 0.000000 0.000000
												CHANNELS 3 Xrotation Yrotation Zrotation
												JOINT RightHandMiddle3
												{
													OFFSET -3.909599 0.000000 0.000000
													CHANNELS 3 Xrotation Yrotation Zrotation
													JOINT RightHandMiddle4
													{
														OFFSET -2.376003 0.000000 0.000000
														CHANNELS 3 Xrotation Yrotation Zrotation
														End Site
														{
															OFFSET 0.000000 0.000000 0.000000
														}
													}
												}
											}
										}
										JOINT RightHandRing1
										{
											OFFSET -7.559013 0.014137 -2.865403
											CHANNELS 3 Xrotation Yrotation Zrotation
											JOINT RightHandRing2
											{
												OFFSET -3.449306 0.000000 0.000000
												CHANNELS 3 Xrotation Yrotation Zrotation
												JOINT RightHandRing3
												{
													OFFSET -3.362106 0.000000 0.000000
													CHANNELS 3 Xrotation Yrotation Zrotation
													JOINT RightHandRing4
													{
														OFFSET -2.076401 0.000000 0.000000
														CHANNELS 3 Xrotation Yrotation Zrotation
														End Site
														{
															OFFSET 0.000000 0.000000 0.000000
														}
													}
												}
											}
										}
									}
								}
							}
						}
					}
				}
			}
		}
	}
	JOINT LeftUpLeg
	{
		OFFSET 10.205400 -3.823500 0.155100
		CHANNELS 3 Xrotation Yrotation Zrotation
		JOINT LeftLeg
		{
			OFFSET 0.708757 -12.982077 0.567790
			CHANNELS 3 Xrotation Yrotation Zrotation
			JOINT LeftFoot
			{
				OFFSET -0.708756 -10.717838 -2.184338
				CHANNELS 3 Xrotation Yrotation Zrotation
				JOINT LeftToeBase
				{
					OFFSET 0.108149 -7.191104 7.560241
					CHANNELS 3 Xrotation Yrotation Zrotation
					JOINT LeftToe_End
					{
						OFFSET 0.070230 0.081724 4.490308
						CHANNELS 3 Xrotation Yrotation Zrotation
						End Site
						{
							OFFSET 0.000000 0.000000 0.000000
						}
					}
				}
			}
		}
	}
	JOINT RightUpLeg
	{
		OFFSET -10.205400 -3.823500 0.005500
		CHANNELS 3 Xrotation Yrotation Zrotation
		JOINT RightLeg
		{
			OFFSET -0.708756 -12.982134 0.610632
			CHANNELS 3 Xrotation Yrotation Zrotation
			JOINT RightFoot
			{
				OFFSET 0.708754 -10.717769 -1.945823
				CHANNELS 3 Xrotation Yrotation Zrotation
				JOINT RightToeBase
				{
					OFFSET -0.108140 -7.191069 7.372968
					CHANNELS 3 Xrotation Yrotation Zrotation
					JOINT RightToe_End
					{
						OFFSET -0.070227 0.081735 4.479403
						CHANNELS 3 Xrotation Yrotation Zrotation
						End Site
						{
							OFFSET 0.000000 0.000000 0.000000
						}
					}
				}
			}
		}
	}
}
MOTION
Frames: 4
Frame Time: 0.016667
-0.124564 30.569740 0.130150 -1.734725 -16.997228 -1.758443 3.891057 2.331695 -0.547256 2.929112 2.056185 -0.138334 0.000000 0.000000 0.000000 2.894091 2.112998 -0.161224 1.137081 0.245403 5.249917 -1.998749 7.430611 1.905182 -0.000000 0.000000 0.000000 1.375472 -4.867615 21.431190 0.000000 0.000000 0.000000 -66.234270 -43.614859 -65.822028 -0.000003 -37.698392 -0.000003 -66.348581 -13.253349 -9.215181 22.600995 -28.107337 -14.151472 29.406819 28.726515 -29.411754 9.113582 14.378694 -9.922572 0.000001 0.000003 -0.000000 0.797673 3.221912 -27.804729 0.799552 3.225534 -27.838610 0.202660 1.661547 -13.908050 0.000000 0.000000 0.000001 0.796757 3.220219 -27.788701 0.800496 3.227248 -27.854635 0.202651 1.661530 -13.908058 -0.000001 0.000000 -0.000001 0.797675 3.221927 -27.804730 0.799573 3.225532 -27.838605 0.202656 1.661527 -13.908052 0.000001 -0.000000 0.000002 0.445410 -0.777914 -3.588552 0.000000 0.000000 0.000000 -96.770708 65.301157 91.341793 -0.000009 28.227451 0.000011 -31.535683 -1.128103 -3.934973 40.606608 -3.110581 26.124205 -37.849527 -44.265042 -46.874974 -12.282866 -22.415233 -17.633366 0.000003 -0.000003 0.000001 3.635327 -6.110973 61.464456 7.728619 -6.904471 96.464462 2.305160 -5.174787 47.998728 0.000001 0.000002 0.000001 3.635340 -6.110978 61.464463 7.728620 -6.904468 96.464442 2.305150 -5.174786 47.998741 0.000000 0.000001 -0.000000 3.635340 -6.110979 61.464449 7.728625 -6.904455 96.464449 2.305159 -5.174783 47.998741 -0.000000 -0.000001 0.000001 -36.491208 15.357061 18.721642 59.081553 -1.433094 8.643910 -22.579350 3.824672 -11.865893 -0.000116 0.000004 -0.000000 0.000000 0.000000 -0.000000 -24.889553 -21.971779 -17.700005 54.547325 0.166016 -10.216746 -28.571877 -6.240892 16.463608 -0.044158 0.000012 -0.000004 0.000000 -0.000005 0.000000 
-0.122835 30.574913 0.130005 -1.679019 -16.957606 -1.775801 3.855569 2.312193 -0.563709 2.899332 2.043578 -0.147449 0.000000 0.000000 0.000000 2.864490 2.099783 -0.170384 1.085836 0.256952 5.236186 -1.804758 7.498500 2.008299 -0.000000 0.000000 0.000000 1.287685 -4.591924 21.372340 0.000000 0.000000 0.000000 -66.225938 -43.832763 -66.089573 0.000009 -37.650106 0.000006 -66.346286 -13.265049 -9.206472 22.601000 -28.107313 -14.151450 29.406830 28.726498 -29.411785 9.113592 14.378721 -9.922557 -0.000002 0.000003 -0.000002 0.797646 3.221939 -27.804720 0.799584 3.225535 -27.838613 0.202676 1.661526 -13.908050 0.000000 -0.000000 -0.000001 0.796755 3.220249 -27.788691 0.800502 3.227227 -27.854640 0.202670 1.661528 -13.908059 -0.000001 -0.000000 0.000002 0.797648 3.221948 -27.804723 0.799593 3.225534 -27.838615 0.202669 1.661522 -13.908048 0.000000 -0.000000 -0.000002 0.432495 -0.830610 -3.627922 0.000000 0.000000 0.000000 -97.091740 65.466175 91.848429 -0.000004 28.156138 0.000000 -31.844637 -1.022892 -3.997971 40.606612 -3.110580 26.124198 -37.849527 -44.265032 -46.874970 -12.282865 -22.415233 -17.633359 0.000001 0.000000 0.000005 3.635331 -6.110975 61.464456 7.728617 -6.904475 96.464462 2.305156 -5.174788 47.998734 -0.000002 0.000003 0.000001 3.635343 -6.110977 61.464456 7.728620 -6.904469 96.464442 2.305155 -5.174787 47.998734 0.000003 0.000001 0.000001 3.635341 -6.110978 61.464449 7.728628 -6.904464 96.464449 2.305153 -5.174782 47.998741 0.000001 0.000003 -0.000002 -36.619339 15.399216 18.702955 59.094940 -1.455326 8.786424 -22.550240 3.829581 -11.890512 -0.000111 0.000004 -0.000002 0.000000 0.000000 0.000000 -24.780382 -21.802551 -17.526605 54.419819 -0.074419 -10.209360 -28.507495 -6.277639 16.597411 -0.042970 -0.000016 -0.000002 0.000000 0.000003 -0.000000 
-0.121078 30.580116 0.128629 -1.625441 -16.913872 -1.788437 3.809222 2.283685 -0.586490 2.860568 2.025400 -0.161203 0.000000 0.000000 0.000000 2.825895 2.080953 -0.184224 1.012363 0.275953 5.218360 -1.628341 7.575833 2.118157 -0.000000 0.000000 -0.000000 1.196434 -4.307702 21.316515 0.000000 0.000000 0.000000 -66.220303 -44.104700 -66.348758 0.000003 -37.562345 0.000011 -66.391351 -13.293642 -9.237410 22.600975 -28.107321 -14.151474 29.406833 28.726509 -29.411782 9.113579 14.378718 -9.922545 -0.000001 -0.000003 0.000001 0.797662 3.221936 -27.804730 0.799591 3.225531 -27.838610 0.202658 1.661530 -13.908063 0.000001 -0.000000 0.000002 0.796763 3.220219 -27.788696 0.800484 3.227245 -27.854649 0.202668 1.661539 -13.908046 0.000001 0.000000 0.000001 0.797660 3.221937 -27.804739 0.799595 3.225526 -27.838613 0.202655 1.661523 -13.908049 0.000001 0.000001 0.000003 0.420646 -0.879272 -3.679165 0.000000 0.000000 0.000000 -97.395725 65.635352 92.333455 0.000005 28.079225 -0.000004 -32.174836 -0.927904 -4.091895 40.606608 -3.110584 26.124208 -37.849524 -44.265046 -46.874967 -12.282863 -22.415233 -17.633364 -0.000003 0.000000 0.000005 3.635332 -6.110975 61.464456 7.728616 -6.904474 96.464462 2.305155 -5.174788 47.998728 0.000001 -0.000001 0.000002 3.635346 -6.110980 61.464456 7.728619 -6.904468 96.464442 2.305157 -5.174787 47.998741 0.000001 0.000000 0.000001 3.635346 -6.110982 61.464449 7.728625 -6.904452 96.464449 2.305157 -5.174788 47.998738 -0.000000 -0.000001 0.000002 -36.744345 15.442569 18.669859 59.099448 -1.472192 8.938787 -22.511284 3.835327 -11.920150 -0.000113 0.000005 -0.000001 0.000000 0.000001 0.000000 -24.671748 -21.627543 -17.356226 54.300328 -0.331757 -10.201594 -28.447618 -6.316135 16.736868 -0.041690 -0.000007 0.000001 0.000000 -0.000003 -0.000000 
-0.119244 30.585384 0.126642 -1.577179 -16.865667 -1.802808 3.760797 2.256462 -0.604609 2.820242 2.007303 -0.173256 0.000000 0.000000 0.000000 2.785801 2.062072 -0.196305 0.943599 0.291474 5.199658 -1.444416 7.647646 2.241819 -0.000000 0.000000 -0.000000 1.103781 -4.021741 21.257200 0.000000 0.000000 0.000000 -66.219196 -44.417010 -66.594720 0.000001 -37.422258 0.000008 -66.480533 -13.341983 -9.321715 22.601011 -28.107345 -14.151479 29.406836 28.726498 -29.411782 9.113576 14.378711 -9.922552 -0.000001 -0.000001 -0.000002 0.797683 3.221927 -27.804734 0.799586 3.225523 -27.838601 0.202655 1.661540 -13.908046 0.000001 0.000001 0.000000 0.796778 3.220219 -27.788701 0.800510 3.227229 -27.854649 0.202655 1.661527 -13.908055 0.000000 0.000001 0.000002 0.797688 3.221936 -27.804730 0.799599 3.225522 -27.838613 0.202647 1.661508 -13.908050 0.000001 -0.000000 0.000001 0.410452 -0.920573 -3.746013 0.000000 0.000000 0.000000 -97.673645 65.806578 92.793413 0.000000 28.006421 -0.000007 -32.526334 -0.855775 -4.208730 40.606608 -3.110586 26.124205 -37.849524 -44.265039 -46.874967 -12.282864 -22.415231 -17.633363 0.000002 -0.000006 0.000002 3.635336 -6.110975 61.464456 7.728615 -6.904471 96.464462 2.305164 -5.174787 47.998728 -0.000002 -0.000001 0.000001 3.635342 -6.110978 61.464463 7.728620 -6.904473 96.464442 2.305154 -5.174788 47.998738 0.000003 0.000005 -0.000002 3.635343 -6.110979 61.464449 7.728626 -6.904459 96.464449 2.305161 -5.174787 47.998738 0.000000 0.000001 0.000000 -36.865854 15.481430 18.637346 59.103266 -1.493266 9.084385 -22.469169 3.840442 -11.944406 -0.000114 0.000003 -0.000001 0.000000 0.000000 -0.000000 -24.555131 -21.454065 -17.184592 54.180175 -0.595122 -10.193467 -28.388604 -6.356873 16.877553 -0.040238 0.000031 -0.000004 0.000000 0.000006 -0.000000 
